<svg width="152" height="152" viewBox="0 0 152 152" fill="none" xmlns="http://www.w3.org/2000/svg">
<g filter="url(#filter0_d_631_6035)">
<rect x="11" y="7" width="120" height="120" rx="60" fill="white" shape-rendering="crispEdges"/>
<path fill-rule="evenodd" clip-rule="evenodd" d="M50.5 69C50.5 65.6863 53.1863 63 56.5 63H84.5C87.8137 63 90.5 65.6863 90.5 69C90.5 78.9411 82.4411 87 72.5 87H68.5C58.5589 87 50.5 78.9411 50.5 69ZM56.5 67H84.5C85.6046 67 86.5 67.8954 86.5 69C86.5 69.679 86.4517 70.3468 86.3582 71H54.6418C54.5483 70.3468 54.5 69.679 54.5 69C54.5 67.8954 55.3954 67 56.5 67ZM55.8473 75C58.0942 79.7299 62.9152 83 68.5 83H72.5C78.0848 83 82.9058 79.7299 85.1527 75H55.8473Z" fill="#04B90B"/>
<path d="M64.5 47C65.6046 47 66.5 47.8954 66.5 49C66.5 51.4532 65.8455 52.7812 65.2889 53.8944L65.2729 53.9263C64.8372 54.7975 64.5 55.4717 64.5 57C64.5 58.1046 63.6046 59 62.5 59C61.3954 59 60.5 58.1046 60.5 57C60.5 54.5468 61.1545 53.2188 61.7111 52.1056L61.7271 52.0737C62.1628 51.2025 62.5 50.5283 62.5 49C62.5 47.8954 63.3954 47 64.5 47Z" fill="#04B90B"/>
<path d="M72.5 47C73.6046 47 74.5 47.8954 74.5 49C74.5 51.4532 73.8455 52.7812 73.2889 53.8944L73.2729 53.9263C72.8372 54.7975 72.5 55.4717 72.5 57C72.5 58.1046 71.6046 59 70.5 59C69.3954 59 68.5 58.1046 68.5 57C68.5 54.5468 69.1545 53.2188 69.7111 52.1056L69.7271 52.0737C70.1628 51.2025 70.5 50.5283 70.5 49C70.5 47.8954 71.3954 47 72.5 47Z" fill="#04B90B"/>
<path d="M82.5 49C82.5 47.8954 81.6046 47 80.5 47C79.3954 47 78.5 47.8954 78.5 49C78.5 50.5283 78.1628 51.2025 77.7271 52.0737L77.7111 52.1056C77.1545 53.2188 76.5 54.5468 76.5 57C76.5 58.1046 77.3954 59 78.5 59C79.6046 59 80.5 58.1046 80.5 57C80.5 55.4717 80.8372 54.7975 81.2729 53.9263L81.2889 53.8944C81.8455 52.7812 82.5 51.4532 82.5 49Z" fill="#04B90B"/>
</g>
<defs>
<filter id="filter0_d_631_6035" x="0" y="0" width="152" height="152" filterUnits="userSpaceOnUse" color-interpolation-filters="sRGB">
<feFlood flood-opacity="0" result="BackgroundImageFix"/>
<feColorMatrix in="SourceAlpha" type="matrix" values="0 0 0 0 0 0 0 0 0 0 0 0 0 0 0 0 0 0 127 0" result="hardAlpha"/>
<feOffset dx="5" dy="9"/>
<feGaussianBlur stdDeviation="8"/>
<feComposite in2="hardAlpha" operator="out"/>
<feColorMatrix type="matrix" values="0 0 0 0 0 0 0 0 0 0 0 0 0 0 0 0 0 0 0.04 0"/>
<feBlend mode="normal" in2="BackgroundImageFix" result="effect1_dropShadow_631_6035"/>
<feBlend mode="normal" in="SourceGraphic" in2="effect1_dropShadow_631_6035" result="shape"/>
</filter>
</defs>
</svg>
