<svg width="16" height="16" viewBox="0 0 16 16" fill="none" xmlns="http://www.w3.org/2000/svg">
<path d="M2.8393 11.0613C2.09384 9.8046 1.83277 8.31903 2.10512 6.8835C2.37747 5.44797 3.1645 4.16123 4.31843 3.26492C5.47235 2.36861 6.91379 1.92437 8.37207 2.01562C9.83036 2.10688 11.2052 2.72735 12.2384 3.76053C13.2715 4.7937 13.892 6.16851 13.9833 7.6268C14.0745 9.08508 13.6303 10.5265 12.734 11.6805C11.8377 12.8344 10.551 13.6214 9.11544 13.8938C7.67991 14.1661 6.19433 13.9051 4.93766 13.1596L4.93767 13.1596L2.86539 13.7516C2.77965 13.7761 2.68892 13.7773 2.60261 13.7549C2.51629 13.7325 2.43752 13.6875 2.37447 13.6244C2.31142 13.5614 2.26638 13.4826 2.24401 13.3963C2.22164 13.31 2.22277 13.2192 2.24726 13.1335L2.83935 11.0612L2.8393 11.0613Z" fill="#3EB274" stroke="#3EB274" stroke-width="0.8" stroke-linecap="round" stroke-linejoin="round"/>
<path d="M9.28954 10.7918C8.7698 10.7926 8.25501 10.6907 7.77469 10.4922C7.29436 10.2936 6.85794 10.0022 6.49042 9.63472C6.12291 9.2672 5.83152 8.83078 5.63296 8.35045C5.43441 7.87013 5.33258 7.35534 5.33332 6.8356C5.33449 6.46976 5.48073 6.11932 5.73994 5.86116C5.99916 5.60299 6.35019 5.45818 6.71603 5.4585C6.77604 5.4585 6.83497 5.47436 6.88687 5.50448C6.93877 5.5346 6.98179 5.5779 7.01156 5.63L7.5889 6.64034C7.62371 6.70127 7.64167 6.77037 7.64093 6.84054C7.64018 6.91072 7.62075 6.97942 7.58465 7.0396L7.12099 7.81236C7.35953 8.34173 7.78341 8.76561 8.31278 9.00415L9.08554 8.5405C9.14572 8.50439 9.21442 8.48497 9.2846 8.48422C9.35477 8.48347 9.42387 8.50143 9.4848 8.53625L10.4951 9.11358C10.5472 9.14335 10.5905 9.18637 10.6207 9.23827C10.6508 9.29017 10.6666 9.34911 10.6666 9.40911C10.6656 9.77454 10.5204 10.1248 10.2625 10.3837C10.0046 10.6426 9.65496 10.7893 9.28954 10.7918Z" fill="white"/>
</svg>
